<mxfile host="65bd71144e">
    <diagram id="Wdhzt5AoC063uY2Xu0Cx" name="Страница 1">
        <mxGraphModel dx="1033" dy="882" grid="1" gridSize="10" guides="1" tooltips="1" connect="1" arrows="1" fold="1" page="1" pageScale="1" pageWidth="827" pageHeight="1169" math="0" shadow="0">
            <root>
                <mxCell id="0"/>
                <mxCell id="1" parent="0"/>
                <mxCell id="68" style="edgeStyle=none;html=1;exitX=0;exitY=0.5;exitDx=0;exitDy=0;entryX=0;entryY=0.817;entryDx=0;entryDy=0;entryPerimeter=0;" edge="1" parent="1">
                    <mxGeometry relative="1" as="geometry">
                        <Array as="points">
                            <mxPoint x="80" y="550"/>
                        </Array>
                        <mxPoint x="140" y="125.00000000000011" as="sourcePoint"/>
                    </mxGeometry>
                </mxCell>
                <mxCell id="101" value="" style="group" vertex="1" connectable="0" parent="1">
                    <mxGeometry x="60" y="40" width="490" height="394.5" as="geometry"/>
                </mxCell>
                <mxCell id="12" value="" style="edgeStyle=none;html=1;entryX=0;entryY=0.5;entryDx=0;entryDy=0;" edge="1" parent="101" source="2">
                    <mxGeometry relative="1" as="geometry">
                        <mxPoint x="110" y="55" as="targetPoint"/>
                    </mxGeometry>
                </mxCell>
                <mxCell id="2" value="Actor" style="shape=umlActor;verticalLabelPosition=bottom;verticalAlign=top;html=1;outlineConnect=0;" vertex="1" parent="101">
                    <mxGeometry y="22.5" width="30" height="65" as="geometry"/>
                </mxCell>
                <mxCell id="91" value="" style="group" vertex="1" connectable="0" parent="101">
                    <mxGeometry x="120" width="120" height="130" as="geometry"/>
                </mxCell>
                <mxCell id="4" value="Ticket" style="rounded=0;whiteSpace=wrap;html=1;fillColor=#008a00;fontColor=#ffffff;strokeColor=#005700;" vertex="1" parent="91">
                    <mxGeometry width="120" height="60" as="geometry"/>
                </mxCell>
                <mxCell id="13" value="ГРУППА" style="rounded=0;whiteSpace=wrap;html=1;fillColor=#0050ef;fontColor=#ffffff;strokeColor=#001DBC;" vertex="1" parent="91">
                    <mxGeometry y="60" width="120" height="30" as="geometry"/>
                </mxCell>
                <mxCell id="15" value="Руководитель&lt;br&gt;1С группы" style="rounded=0;whiteSpace=wrap;html=1;fillColor=#1ba1e2;fontColor=#ffffff;strokeColor=#006EAF;" vertex="1" parent="91">
                    <mxGeometry y="90" width="120" height="40" as="geometry"/>
                </mxCell>
                <mxCell id="92" value="Руководитель группы группы" style="rounded=0;whiteSpace=wrap;html=1;fillColor=#1ba1e2;fontColor=#ffffff;strokeColor=#006EAF;" vertex="1" parent="101">
                    <mxGeometry x="120" y="170" width="120" height="60" as="geometry"/>
                </mxCell>
                <mxCell id="93" style="edgeStyle=none;html=1;" edge="1" parent="101" source="15" target="92">
                    <mxGeometry relative="1" as="geometry"/>
                </mxCell>
                <mxCell id="95" value="Task" style="rounded=0;whiteSpace=wrap;html=1;fillColor=#6a00ff;fontColor=#ffffff;strokeColor=#3700CC;" vertex="1" parent="101">
                    <mxGeometry x="120" y="274" width="120" height="60" as="geometry"/>
                </mxCell>
                <mxCell id="99" style="edgeStyle=none;html=1;exitX=0.5;exitY=1;exitDx=0;exitDy=0;entryX=0.5;entryY=0;entryDx=0;entryDy=0;" edge="1" parent="101" source="92" target="95">
                    <mxGeometry relative="1" as="geometry"/>
                </mxCell>
                <mxCell id="97" value="Исполнитель&lt;br&gt;задачи" style="rounded=0;whiteSpace=wrap;html=1;fillColor=#60a917;fontColor=#ffffff;strokeColor=#2D7600;" vertex="1" parent="101">
                    <mxGeometry x="120" y="334.5" width="120" height="60" as="geometry"/>
                </mxCell>
                <mxCell id="100" style="edgeStyle=none;html=1;exitX=0;exitY=0.5;exitDx=0;exitDy=0;entryX=1;entryY=0.5;entryDx=0;entryDy=0;" edge="1" parent="101" source="9" target="92">
                    <mxGeometry relative="1" as="geometry"/>
                </mxCell>
                <mxCell id="9" value="Группа" style="rounded=0;whiteSpace=wrap;html=1;verticalAlign=top;fillColor=#0050ef;fontColor=#ffffff;strokeColor=#001DBC;container=0;" vertex="1" parent="101">
                    <mxGeometry x="330" y="50" width="160" height="300" as="geometry"/>
                </mxCell>
                <mxCell id="3" value="1C" style="rounded=0;whiteSpace=wrap;html=1;fillColor=#1ba1e2;fontColor=#ffffff;strokeColor=#006EAF;container=0;" vertex="1" parent="101">
                    <mxGeometry x="353.52941176470586" y="149.99818181818182" width="112.94117647058823" height="54.54545454545455" as="geometry"/>
                </mxCell>
                <mxCell id="5" value="support" style="rounded=0;whiteSpace=wrap;html=1;fillColor=#76608a;fontColor=#ffffff;strokeColor=#432D57;container=0;" vertex="1" parent="101">
                    <mxGeometry x="353.52941176470586" y="80.00181818181818" width="112.94117647058823" height="54.54545454545455" as="geometry"/>
                </mxCell>
                <mxCell id="6" value="Программисты" style="rounded=0;whiteSpace=wrap;html=1;fillColor=#1ba1e2;fontColor=#ffffff;strokeColor=#006EAF;container=0;" vertex="1" parent="101">
                    <mxGeometry x="353.52941176470586" y="210.00454545454545" width="112.94117647058823" height="54.54545454545455" as="geometry"/>
                </mxCell>
                <mxCell id="7" value="ИТ/Сисадмины" style="rounded=0;whiteSpace=wrap;html=1;fillColor=#1ba1e2;fontColor=#ffffff;strokeColor=#006EAF;container=0;" vertex="1" parent="101">
                    <mxGeometry x="353.52941176470586" y="270.0009090909091" width="112.94117647058823" height="54.54545454545455" as="geometry"/>
                </mxCell>
                <mxCell id="102" value="" style="edgeStyle=none;html=1;entryX=0;entryY=0.5;entryDx=0;entryDy=0;" edge="1" parent="1" source="103">
                    <mxGeometry relative="1" as="geometry">
                        <mxPoint x="170" y="535" as="targetPoint"/>
                    </mxGeometry>
                </mxCell>
                <mxCell id="103" value="Actor" style="shape=umlActor;verticalLabelPosition=bottom;verticalAlign=top;html=1;outlineConnect=0;" vertex="1" parent="1">
                    <mxGeometry x="60" y="502.5" width="30" height="65" as="geometry"/>
                </mxCell>
                <mxCell id="104" value="" style="group;fillColor=#76608a;fontColor=#ffffff;strokeColor=#432D57;" vertex="1" connectable="0" parent="1">
                    <mxGeometry x="180" y="480" width="120" height="130" as="geometry"/>
                </mxCell>
                <mxCell id="105" value="Ticket" style="rounded=0;whiteSpace=wrap;html=1;fillColor=#008a00;fontColor=#ffffff;strokeColor=#005700;" vertex="1" parent="104">
                    <mxGeometry width="120" height="60" as="geometry"/>
                </mxCell>
                <mxCell id="106" value="ГРУППА" style="rounded=0;whiteSpace=wrap;html=1;fillColor=#0050ef;fontColor=#ffffff;strokeColor=#001DBC;" vertex="1" parent="104">
                    <mxGeometry y="60" width="120" height="30" as="geometry"/>
                </mxCell>
                <mxCell id="107" value="Руководитель&lt;br&gt;1С группы" style="rounded=0;whiteSpace=wrap;html=1;fillColor=#76608a;fontColor=#ffffff;strokeColor=#432D57;" vertex="1" parent="104">
                    <mxGeometry y="90" width="120" height="40" as="geometry"/>
                </mxCell>
                <mxCell id="124" style="edgeStyle=none;html=1;exitX=0.5;exitY=1;exitDx=0;exitDy=0;entryX=0.5;entryY=0;entryDx=0;entryDy=0;" edge="1" parent="1" source="109" target="121">
                    <mxGeometry relative="1" as="geometry"/>
                </mxCell>
                <mxCell id="129" value="" style="edgeStyle=none;html=1;" edge="1" parent="1" source="109" target="128">
                    <mxGeometry relative="1" as="geometry"/>
                </mxCell>
                <mxCell id="109" value="Руководитель группы группы" style="rounded=0;whiteSpace=wrap;html=1;fillColor=#76608a;fontColor=#ffffff;strokeColor=#432D57;" vertex="1" parent="1">
                    <mxGeometry x="180" y="650" width="120" height="60" as="geometry"/>
                </mxCell>
                <mxCell id="110" style="edgeStyle=none;html=1;" edge="1" parent="1" source="107" target="109">
                    <mxGeometry relative="1" as="geometry"/>
                </mxCell>
                <mxCell id="111" value="Task" style="rounded=0;whiteSpace=wrap;html=1;fillColor=#6a00ff;fontColor=#ffffff;strokeColor=#3700CC;" vertex="1" parent="1">
                    <mxGeometry x="180" y="920" width="120" height="60" as="geometry"/>
                </mxCell>
                <mxCell id="112" value="Исполнитель&lt;br&gt;задачи" style="rounded=0;whiteSpace=wrap;html=1;fillColor=#60a917;fontColor=#ffffff;strokeColor=#2D7600;" vertex="1" parent="1">
                    <mxGeometry x="180" y="960.5" width="120" height="60" as="geometry"/>
                </mxCell>
                <mxCell id="120" value="" style="group" vertex="1" connectable="0" parent="1">
                    <mxGeometry x="180" y="760" width="120" height="130" as="geometry"/>
                </mxCell>
                <mxCell id="121" value="Ticket" style="rounded=0;whiteSpace=wrap;html=1;fillColor=#008a00;fontColor=#ffffff;strokeColor=#005700;" vertex="1" parent="120">
                    <mxGeometry width="120" height="60" as="geometry"/>
                </mxCell>
                <mxCell id="122" value="ГРУППА" style="rounded=0;whiteSpace=wrap;html=1;fillColor=#0050ef;fontColor=#ffffff;strokeColor=#001DBC;" vertex="1" parent="120">
                    <mxGeometry y="60" width="120" height="30" as="geometry"/>
                </mxCell>
                <mxCell id="123" value="Руководитель&lt;br&gt;1С группы" style="rounded=0;whiteSpace=wrap;html=1;fillColor=#1ba1e2;fontColor=#ffffff;strokeColor=#006EAF;" vertex="1" parent="120">
                    <mxGeometry y="90" width="120" height="40" as="geometry"/>
                </mxCell>
                <mxCell id="125" style="edgeStyle=none;html=1;exitX=0.5;exitY=1;exitDx=0;exitDy=0;entryX=0.5;entryY=0;entryDx=0;entryDy=0;" edge="1" parent="1" source="123" target="111">
                    <mxGeometry relative="1" as="geometry"/>
                </mxCell>
                <mxCell id="126" value="" style="group" vertex="1" connectable="0" parent="1">
                    <mxGeometry x="390" y="650" width="160" height="300" as="geometry"/>
                </mxCell>
                <mxCell id="114" value="Группа" style="rounded=0;whiteSpace=wrap;html=1;verticalAlign=top;fillColor=#0050ef;fontColor=#ffffff;strokeColor=#001DBC;container=0;" vertex="1" parent="126">
                    <mxGeometry width="160" height="300" as="geometry"/>
                </mxCell>
                <mxCell id="115" value="1C" style="rounded=0;whiteSpace=wrap;html=1;fillColor=#1ba1e2;fontColor=#ffffff;strokeColor=#006EAF;container=0;" vertex="1" parent="126">
                    <mxGeometry x="23.529411764705856" y="99.99818181818182" width="112.94117647058823" height="54.54545454545455" as="geometry"/>
                </mxCell>
                <mxCell id="116" value="support" style="rounded=0;whiteSpace=wrap;html=1;fillColor=#76608a;fontColor=#ffffff;strokeColor=#432D57;container=0;" vertex="1" parent="126">
                    <mxGeometry x="23.529411764705856" y="30.00181818181818" width="112.94117647058823" height="54.54545454545455" as="geometry"/>
                </mxCell>
                <mxCell id="117" value="Программисты" style="rounded=0;whiteSpace=wrap;html=1;fillColor=#fa6800;fontColor=#000000;strokeColor=#C73500;container=0;" vertex="1" parent="126">
                    <mxGeometry x="23.529411764705856" y="160.00454545454545" width="112.94117647058823" height="54.54545454545455" as="geometry"/>
                </mxCell>
                <mxCell id="118" value="ИТ/Сисадмины" style="rounded=0;whiteSpace=wrap;html=1;fillColor=#e51400;fontColor=#ffffff;strokeColor=#B20000;container=0;" vertex="1" parent="126">
                    <mxGeometry x="23.529411764705856" y="220.0009090909091" width="112.94117647058823" height="54.54545454545455" as="geometry"/>
                </mxCell>
                <mxCell id="127" style="edgeStyle=none;html=1;exitX=0;exitY=0.5;exitDx=0;exitDy=0;entryX=1;entryY=0.5;entryDx=0;entryDy=0;" edge="1" parent="1" source="115" target="123">
                    <mxGeometry relative="1" as="geometry"/>
                </mxCell>
                <mxCell id="113" style="edgeStyle=none;html=1;exitX=0;exitY=0.5;exitDx=0;exitDy=0;entryX=1;entryY=0.5;entryDx=0;entryDy=0;" edge="1" parent="1" source="116" target="109">
                    <mxGeometry relative="1" as="geometry"/>
                </mxCell>
                <mxCell id="128" value="Task" style="rounded=0;whiteSpace=wrap;html=1;fillColor=#6a00ff;fontColor=#ffffff;strokeColor=#3700CC;" vertex="1" parent="1">
                    <mxGeometry x="20" y="760" width="120" height="60" as="geometry"/>
                </mxCell>
                <mxCell id="130" value="Исполнитель задачи&lt;br&gt;из группы&lt;br&gt;support" style="rounded=0;whiteSpace=wrap;html=1;fillColor=#76608a;fontColor=#ffffff;strokeColor=#432D57;" vertex="1" parent="1">
                    <mxGeometry x="20" y="820" width="120" height="60" as="geometry"/>
                </mxCell>
            </root>
        </mxGraphModel>
    </diagram>
</mxfile>
